<?xml version="1.0" standalone="no"?>
<!DOCTYPE svg PUBLIC "-//W3C//DTD SVG 20010904//EN"
 "http://www.w3.org/TR/2001/REC-SVG-20010904/DTD/svg10.dtd">
<svg version="1.0" xmlns="http://www.w3.org/2000/svg"
 width="96.000000pt" height="96.000000pt" viewBox="0 0 96.000000 96.000000"
 preserveAspectRatio="xMidYMid meet">

<g transform="translate(0.000000,96.000000) scale(0.100000,-0.100000)"
fill="#000000" stroke="none">
<path d="M140 560 c-23 -23 -26 -59 -7 -82 6 -9 81 -61 164 -117 110 -73 161
-101 183 -101 22 0 73 28 183 101 83 56 158 108 165 117 30 39 -3 102 -53 102
-15 0 -79 -36 -160 -90 l-135 -90 -135 90 c-141 95 -170 105 -205 70z"/>
</g>
</svg>
