<?xml version="1.0" standalone="no"?>
<!DOCTYPE svg PUBLIC "-//W3C//DTD SVG 20010904//EN"
 "http://www.w3.org/TR/2001/REC-SVG-20010904/DTD/svg10.dtd">
<svg version="1.0" xmlns="http://www.w3.org/2000/svg"
 width="96.000000pt" height="96.000000pt" viewBox="0 0 96.000000 96.000000"
 preserveAspectRatio="xMidYMid meet">

<g transform="translate(0.000000,96.000000) scale(0.100000,-0.100000)"
fill="#000000" stroke="none">
<path d="M386 870 c-63 -16 -153 -70 -197 -117 -22 -24 -55 -74 -72 -111 -29
-61 -32 -76 -32 -163 0 -90 2 -99 37 -171 45 -90 104 -148 191 -188 72 -33
137 -47 137 -29 0 6 9 23 20 39 l20 27 -52 7 c-56 8 -128 41 -175 80 -16 14
-45 53 -64 88 -31 58 -34 70 -33 148 0 69 5 94 24 135 115 237 450 246 567 15
18 -36 35 -76 37 -91 4 -15 21 -35 47 -52 l42 -28 -6 63 c-20 191 -182 344
-375 354 -42 2 -94 -1 -116 -6z"/>
<path d="M440 607 l0 -113 -70 -69 c-38 -38 -70 -74 -70 -80 0 -12 36 -45 48
-45 4 0 44 37 90 83 l82 82 0 128 0 127 -40 0 -40 0 0 -113z"/>
<path d="M691 426 c-87 -48 -50 -186 49 -186 51 0 100 49 100 99 0 75 -83 124
-149 87z"/>
<path d="M646 149 c-48 -12 -103 -44 -116 -69 -6 -10 -10 -32 -10 -49 l0 -31
220 0 220 0 0 35 c0 42 -31 78 -87 102 -46 19 -174 26 -227 12z"/>
</g>
</svg>
