<?xml version="1.0" standalone="no"?>
<!DOCTYPE svg PUBLIC "-//W3C//DTD SVG 20010904//EN"
 "http://www.w3.org/TR/2001/REC-SVG-20010904/DTD/svg10.dtd">
<svg version="1.0" xmlns="http://www.w3.org/2000/svg"
 width="96.000000pt" height="96.000000pt" viewBox="0 0 96.000000 96.000000"
 preserveAspectRatio="xMidYMid meet">

<g transform="translate(0.000000,96.000000) scale(0.100000,-0.100000)"
fill="#000000" stroke="none">
<path d="M546 795 c-48 -17 -74 -41 -60 -55 7 -7 23 -3 48 10 44 22 56 19 56
-14 0 -30 -18 -46 -52 -46 -44 0 -94 -25 -120 -60 -21 -29 -27 -32 -65 -27
-29 3 -54 15 -78 36 -33 29 -41 31 -108 31 -84 0 -151 -25 -162 -61 -12 -37
19 -52 85 -43 89 11 138 7 183 -18 62 -34 99 -93 106 -170 l6 -63 81 0 c104 0
121 12 122 88 1 61 13 98 43 128 l22 22 12 -24 c11 -20 10 -27 -12 -56 -76
-99 -27 -242 93 -272 172 -43 290 178 156 291 -42 35 -95 52 -140 43 -52 -10
-54 -12 -32 -48 17 -27 24 -31 55 -29 49 5 95 -41 95 -93 0 -80 -100 -126
-155 -71 -33 33 -41 71 -23 108 l14 31 38 -52 c36 -49 66 -66 66 -38 0 8 -16
35 -36 61 -27 34 -42 45 -55 41 -13 -4 -22 2 -33 23 -13 26 -13 31 0 44 14 14
14 20 -5 56 -11 22 -30 76 -42 119 -20 76 -42 123 -57 123 -4 -1 -25 -7 -46
-15z"/>
<path d="M680 723 c0 -4 7 -33 16 -65 15 -53 19 -58 45 -58 49 0 67 72 29 110
-19 19 -90 29 -90 13z"/>
<path d="M104 521 c-23 -10 -54 -36 -70 -57 -25 -32 -29 -47 -29 -99 0 -52 4
-67 29 -99 38 -50 104 -80 160 -72 70 11 130 63 142 125 6 30 5 31 -30 31 -25
0 -36 4 -36 15 0 10 11 15 35 15 42 0 45 15 13 72 -43 75 -136 106 -214 69z
m130 -86 c28 -26 35 -55 13 -55 -8 0 -22 9 -32 20 -20 22 -64 27 -83 8 -16
-16 -16 -70 0 -86 19 -19 63 -14 83 8 10 11 24 20 32 20 21 0 15 -29 -12 -55
-35 -36 -88 -34 -126 4 -85 85 37 218 125 136z"/>
</g>
</svg>
