<?xml version="1.0" standalone="no"?>
<!DOCTYPE svg PUBLIC "-//W3C//DTD SVG 20010904//EN"
 "http://www.w3.org/TR/2001/REC-SVG-20010904/DTD/svg10.dtd">
<svg version="1.0" xmlns="http://www.w3.org/2000/svg"
 width="96.000000pt" height="96.000000pt" viewBox="0 0 96.000000 96.000000"
 preserveAspectRatio="xMidYMid meet">

<g transform="translate(0.000000,96.000000) scale(0.100000,-0.100000)"
fill="#000000" stroke="none">
<path d="M115 796 c-90 -95 -134 -273 -104 -418 25 -118 114 -257 156 -244 29
9 37 35 18 60 -77 106 -105 182 -105 287 0 85 28 175 76 242 39 54 43 82 13
97 -17 10 -25 6 -54 -24z"/>
<path d="M787 819 c-26 -15 -21 -44 17 -96 102 -143 101 -342 -3 -490 -44 -63
-46 -87 -8 -99 42 -13 120 107 153 236 31 122 3 275 -71 387 -40 60 -62 76
-88 62z"/>
<path d="M258 663 c-68 -77 -84 -216 -36 -309 32 -61 49 -77 80 -72 28 4 36
42 14 67 -54 59 -59 152 -15 239 18 33 29 68 26 76 -8 21 -50 20 -69 -1z"/>
<path d="M637 673 c-11 -10 -8 -51 4 -59 21 -13 49 -89 49 -134 0 -45 -28
-121 -49 -134 -18 -11 -13 -54 8 -65 27 -15 63 17 92 81 43 97 27 226 -39 301
-15 17 -53 23 -65 10z"/>
<path d="M442 565 c-21 -9 -38 -27 -48 -50 -20 -49 1 -100 51 -120 31 -14 39
-14 70 0 78 32 78 138 1 170 -41 18 -33 18 -74 0z"/>
</g>
</svg>
