<?xml version="1.0" encoding="iso-8859-1"?>
<!-- Generator: Adobe Illustrator 19.0.0, SVG Export Plug-In . SVG Version: 6.00 Build 0)  -->
<svg version="1.1" id="Layer_1" xmlns="http://www.w3.org/2000/svg" xmlns:xlink="http://www.w3.org/1999/xlink" x="0px" y="0px"
	 viewBox="0 0 511.999 511.999" style="enable-background:new 0 0 511.999 511.999;" xml:space="preserve">
<g>
	<g>
		<path d="M470.486,116.194c-26.457-40.51-63.611-72.601-107.443-92.805c-5.025-2.314-10.964-0.12-13.278,4.9
			c-2.312,5.02-0.12,10.964,4.9,13.278c40.412,18.626,74.668,48.217,99.065,85.572c25.028,38.321,38.256,82.881,38.256,128.862
			c0,130.123-105.863,235.983-235.985,235.983S20.015,386.123,20.015,256.001S125.877,20.015,255.999,20.015
			c5.528,0,10.007-4.479,10.007-10.007C266.007,4.479,261.527,0,255.999,0C114.84,0,0,114.841,0,256.001
			c0,141.158,114.84,255.998,255.999,255.998s255.999-114.84,255.999-255.998C512,206.122,497.644,157.778,470.486,116.194z"/>
	</g>
</g>
<g>
	<g>
		<path d="M397.001,377.025l-16.719-16.718c-3.907-3.907-10.244-3.907-14.152,0l-9.468,9.47l-11.731-11.733
			c-1.877-1.877-4.422-2.931-7.077-2.931s-5.198,1.054-7.077,2.93l-14.17,14.172l-12.776-12.777
			c-1.877-1.877-4.422-2.931-7.077-2.931s-5.198,1.054-7.077,2.931l-12.428,12.429l-8.597-8.598
			c-3.911-3.907-10.246-3.907-14.156-0.001L238.3,379.463c-3.908,3.909-3.908,10.245,0,14.153c1.955,1.953,4.517,2.93,7.077,2.93
			s5.122-0.977,7.077-2.93l9.119-9.12l8.597,8.598c1.877,1.876,4.422,2.93,7.077,2.93s5.198-1.054,7.077-2.931l12.428-12.428
			l12.776,12.776c1.877,1.877,4.422,2.931,7.077,2.931c2.655,0,5.198-1.054,7.077-2.93l14.17-14.172l11.731,11.733
			c1.876,1.877,4.422,2.931,7.077,2.931s5.198-1.054,7.077-2.93l9.468-9.47l9.644,9.643c3.907,3.907,10.244,3.908,14.152-0.001
			C400.911,387.269,400.911,380.932,397.001,377.025z"/>
	</g>
</g>
<g>
	<g>
		<circle cx="324.744" cy="20.015" r="10.007"/>
	</g>
</g>
<g>
	<g>
		<path d="M257.388,234.367l-61.96-27.353c-5.052-2.231-10.964,0.056-13.196,5.113c-2.231,5.057,0.057,10.965,5.114,13.198
			l41.094,18.143l-41.054,17.902c-5.065,2.21-7.381,8.107-5.172,13.174c1.641,3.764,5.317,6.01,9.177,6.01
			c1.334,0,2.693-0.268,3.995-0.838l61.96-27.02c3.641-1.588,5.998-5.177,6.007-9.151
			C263.363,239.573,261.023,235.971,257.388,234.367z"/>
	</g>
</g>
<g>
	<g>
		<path d="M440.715,261.373l-41.054-17.902l41.094-18.143c5.057-2.232,7.347-8.141,5.114-13.198s-8.143-7.345-13.196-5.113
			l-61.96,27.353c-3.633,1.604-5.975,5.205-5.966,9.177c0.009,3.972,2.366,7.563,6.007,9.151l61.96,27.02
			c1.302,0.568,2.661,0.837,3.995,0.837c3.86,0,7.536-2.246,9.177-6.01C448.096,269.479,445.781,263.582,440.715,261.373z"/>
	</g>
</g>
<g>
</g>
<g>
</g>
<g>
</g>
<g>
</g>
<g>
</g>
<g>
</g>
<g>
</g>
<g>
</g>
<g>
</g>
<g>
</g>
<g>
</g>
<g>
</g>
<g>
</g>
<g>
</g>
<g>
</g>
</svg>
