<?xml version="1.0" standalone="no"?>
<!DOCTYPE svg PUBLIC "-//W3C//DTD SVG 20010904//EN"
 "http://www.w3.org/TR/2001/REC-SVG-20010904/DTD/svg10.dtd">
<svg version="1.0" xmlns="http://www.w3.org/2000/svg"
 width="96.000000pt" height="96.000000pt" viewBox="0 0 96.000000 96.000000"
 preserveAspectRatio="xMidYMid meet">

<g transform="translate(0.000000,96.000000) scale(0.100000,-0.100000)"
fill="#000000" stroke="none">
<path d="M437 914 c-4 -4 -7 -17 -7 -29 0 -36 -25 -51 -55 -31 -33 22 -48 20
-75 -9 -23 -25 -23 -25 -5 -59 21 -39 18 -46 -28 -62 -27 -9 -32 -16 -35 -49
-4 -41 8 -55 46 -55 30 0 38 -24 18 -55 -22 -33 -20 -48 7 -73 28 -27 32 -27
66 -3 33 24 51 15 60 -30 7 -33 9 -34 51 -34 44 0 45 1 48 33 4 42 24 50 68
26 l34 -19 27 28 28 27 -19 34 c-24 44 -16 64 26 68 32 3 33 4 33 48 0 43 -1
45 -37 53 -42 10 -46 22 -21 66 17 29 17 30 -6 55 -28 30 -47 33 -72 10 -25
-22 -47 -11 -57 28 -7 30 -12 33 -48 36 -22 2 -43 0 -47 -4z m89 -187 c54 -46
23 -130 -47 -130 -33 0 -79 39 -79 68 0 26 22 63 44 73 33 17 53 14 82 -11z"/>
<path d="M136 382 c-49 -21 -91 -43 -93 -49 -4 -11 81 -210 96 -226 4 -4 28 4
53 18 l46 25 113 -56 c153 -75 153 -75 350 52 190 122 221 148 217 183 -5 46
-45 39 -144 -25 -49 -31 -103 -73 -121 -93 l-31 -36 -119 1 c-123 1 -173 12
-173 40 0 13 6 15 28 10 15 -4 72 -9 128 -13 113 -6 144 3 144 42 0 32 -35 55
-85 55 -65 0 -106 17 -152 62 -40 39 -47 42 -105 45 -55 3 -75 -2 -152 -35z"/>
<path d="M571 386 l-54 -33 39 -5 c31 -4 50 1 92 26 28 17 52 34 52 38 0 21
-79 5 -129 -26z"/>
<path d="M755 390 c-12 -4 -42 -21 -67 -37 -40 -25 -44 -31 -33 -46 7 -9 16
-17 20 -17 13 0 135 81 135 90 0 6 -27 22 -33 19 -1 0 -11 -4 -22 -9z"/>
</g>
</svg>
