<?xml version="1.0" standalone="no"?>
<!DOCTYPE svg PUBLIC "-//W3C//DTD SVG 20010904//EN"
 "http://www.w3.org/TR/2001/REC-SVG-20010904/DTD/svg10.dtd">
<svg version="1.0" xmlns="http://www.w3.org/2000/svg"
 width="96.000000pt" height="96.000000pt" viewBox="0 0 96.000000 96.000000"
 preserveAspectRatio="xMidYMid meet">

<g transform="translate(0.000000,96.000000) scale(0.100000,-0.100000)"
fill="#000000" stroke="none">
<path d="M469 891 c-17 -18 -29 -40 -29 -56 0 -38 50 -85 90 -85 44 0 80 39
80 85 0 79 -84 112 -141 56z"/>
<path d="M343 658 c-80 -51 -83 -55 -118 -132 -35 -78 -38 -109 -10 -120 28
-10 43 5 72 70 23 54 35 69 70 89 48 27 49 26 28 -60 -26 -110 -22 -129 41
-195 54 -56 57 -63 76 -152 23 -103 30 -118 62 -118 28 0 46 18 46 47 0 56
-43 202 -76 257 l-35 60 31 125 c31 124 31 125 12 150 -15 21 -29 27 -68 29
-45 3 -57 -2 -131 -50z"/>
<path d="M583 583 c-10 -43 -9 -50 8 -69 17 -18 116 -54 148 -54 15 0 32 36
25 54 -3 8 -29 22 -57 31 -34 11 -63 29 -83 52 l-30 35 -11 -49z"/>
<path d="M345 281 c-4 -26 -26 -64 -62 -111 -50 -64 -55 -75 -47 -99 7 -20 16
-26 39 -26 24 0 39 12 82 65 29 36 58 82 65 103 11 36 10 39 -22 72 -19 19
-37 35 -41 35 -4 0 -10 -18 -14 -39z"/>
</g>
</svg>
